<svg width="479" height="89" viewBox="0 0 479 89" fill="none" xmlns="http://www.w3.org/2000/svg">
<path d="M155.296 45.7722C155.296 47.5931 154.96 49.2468 154.288 50.7333C153.653 52.2198 152.795 53.5019 151.712 54.5796C150.629 55.6573 149.379 56.4934 147.96 57.088C146.579 57.6826 145.141 57.9799 143.648 57.9799C142.155 57.9799 140.717 57.7012 139.336 57.1437C137.992 56.5491 136.797 55.7316 135.752 54.691C134.744 53.6133 133.941 52.3127 133.344 50.789C132.747 49.2654 132.448 47.5745 132.448 45.7164V45.6049C132.448 43.7097 132.728 42.0188 133.288 40.5323C133.885 39.0087 134.688 37.7266 135.696 36.6861C136.704 35.6455 137.88 34.8466 139.224 34.2891C140.605 33.7317 142.08 33.453 143.648 33.453C145.141 33.453 146.579 33.7503 147.96 34.3449C149.379 34.9395 150.629 35.7756 151.712 36.8533C152.795 37.8938 153.653 39.1759 154.288 40.6996C154.96 42.186 155.296 43.8398 155.296 45.6607V45.7722Z" fill="#101010"/>
<path d="M113.428 50.5661C114.025 49.0796 114.324 47.5002 114.324 45.8279V45.7164C114.324 44.007 114.025 42.409 113.428 40.9225C112.83 39.3989 111.99 38.0796 110.908 36.9648C109.862 35.8499 108.612 34.9766 107.156 34.3449C105.737 33.7131 104.206 33.3972 102.564 33.3972C100.884 33.3972 99.3157 33.7317 97.8597 34.4006C96.441 35.0324 95.209 35.9057 94.1637 37.0205C93.1557 38.0982 92.353 39.3803 91.7557 40.8668C91.1957 42.3533 90.9156 43.9327 90.9156 45.6049V45.7164C90.9156 47.4259 91.2143 49.0424 91.8117 50.5661C92.409 52.0525 93.2303 53.3532 94.2757 54.4681C95.3583 55.5829 96.609 56.4562 98.0277 57.088C99.4837 57.7197 101.033 58.0356 102.676 58.0356C104.356 58.0356 105.905 57.7197 107.324 57.088C108.78 56.4191 110.012 55.5458 111.02 54.4681C112.065 53.3532 112.868 52.0525 113.428 50.5661Z" fill="#101010"/>
<path d="M267.2 49.1725C267.648 47.9833 267.872 46.6641 267.872 45.2147C267.872 43.7654 267.648 42.4648 267.2 41.3127C266.752 40.1236 266.136 39.1202 265.352 38.3026C264.605 37.4851 263.709 36.8533 262.664 36.4074C261.656 35.9614 260.573 35.7384 259.416 35.7384C258.258 35.7384 257.157 35.9614 256.112 36.4074C255.066 36.8533 254.152 37.5036 253.368 38.3584C252.584 39.1759 251.949 40.1607 251.464 41.3127C251.016 42.4648 250.792 43.7654 250.792 45.2147C250.792 46.6641 251.016 47.9647 251.464 49.1168C251.949 50.2688 252.584 51.2721 253.368 52.1269C254.152 52.9444 255.066 53.5762 256.112 54.0221C257.157 54.4681 258.258 54.691 259.416 54.691C260.573 54.691 261.656 54.4681 262.664 54.0221C263.709 53.5762 264.605 52.9444 265.352 52.1269C266.136 51.3093 266.752 50.3245 267.2 49.1725Z" fill="#101010"/>
<path d="M350.138 49.0053C350.549 47.8532 350.754 46.6269 350.754 45.3262C350.754 44.0256 350.53 42.7992 350.082 41.6472C349.634 40.4952 348.999 39.4918 348.178 38.6371C347.394 37.7452 346.442 37.0577 345.322 36.5746C344.239 36.0543 343.026 35.7942 341.682 35.7942C340.338 35.7942 339.106 36.0543 337.986 36.5746C336.903 37.0577 335.97 37.7266 335.186 38.5813C334.402 39.4361 333.805 40.4394 333.394 41.5914C332.983 42.7063 332.778 43.9141 332.778 45.2147C332.778 46.5154 333.002 47.7603 333.45 48.9495C333.898 50.1015 334.514 51.1049 335.298 51.9596C336.119 52.8144 337.071 53.5019 338.154 54.0221C339.274 54.5052 340.487 54.7468 341.794 54.7468C343.175 54.7468 344.407 54.5052 345.49 54.0221C346.61 53.5019 347.562 52.8144 348.346 51.9596C349.13 51.1049 349.727 50.1201 350.138 49.0053Z" fill="#101010"/>
<path d="M420.291 49.0053C420.702 47.8532 420.907 46.6269 420.907 45.3262C420.907 44.0256 420.683 42.7992 420.235 41.6472C419.787 40.4952 419.152 39.4918 418.331 38.6371C417.547 37.7452 416.595 37.0577 415.475 36.5746C414.392 36.0543 413.179 35.7942 411.835 35.7942C410.491 35.7942 409.259 36.0543 408.139 36.5746C407.056 37.0577 406.123 37.7266 405.339 38.5813C404.555 39.4361 403.958 40.4394 403.547 41.5914C403.136 42.7063 402.931 43.9141 402.931 45.2147C402.931 46.5154 403.155 47.7603 403.603 48.9495C404.051 50.1015 404.667 51.1049 405.451 51.9596C406.272 52.8144 407.224 53.5019 408.307 54.0221C409.427 54.5052 410.64 54.7468 411.947 54.7468C413.328 54.7468 414.56 54.5052 415.643 54.0221C416.763 53.5019 417.715 52.8144 418.499 51.9596C419.283 51.1049 419.88 50.1201 420.291 49.0053Z" fill="#101010"/>
<path fill-rule="evenodd" clip-rule="evenodd" d="M478.706 0.111084H0.153809V88.1444H478.706V0.111084ZM157.872 59.9309V19.2385H155.128V37.6337C154.531 36.7418 153.84 35.8871 153.056 35.0695C152.309 34.252 151.451 33.5273 150.48 32.8955C149.547 32.2638 148.483 31.7621 147.288 31.3905C146.093 31.0189 144.787 30.8331 143.368 30.8331C141.651 30.8331 139.952 31.1861 138.272 31.8922C136.629 32.5611 135.155 33.5459 133.848 34.8466C132.541 36.1101 131.477 37.6709 130.656 39.529C129.872 41.3499 129.48 43.4124 129.48 45.7164V45.8279C129.48 48.132 129.872 50.213 130.656 52.0711C131.477 53.8921 132.541 55.4343 133.848 56.6978C135.155 57.9613 136.629 58.9275 138.272 59.5964C139.952 60.2653 141.651 60.5998 143.368 60.5998C144.787 60.5998 146.075 60.3954 147.232 59.9866C148.427 59.615 149.491 59.1133 150.424 58.4816C151.395 57.8498 152.253 57.1066 153 56.2519C153.784 55.3971 154.493 54.5052 155.128 53.5762V59.9309H157.872ZM75.4798 53.2975L77.3838 54.9698C75.9278 56.6049 74.2664 57.9613 72.3998 59.039C70.5704 60.0795 68.3491 60.5998 65.7358 60.5998C63.6824 60.5998 61.7598 60.2096 59.9678 59.4292C58.2131 58.6116 56.6824 57.5339 55.3758 56.1961C54.0691 54.8583 53.0424 53.2975 52.2958 51.5137C51.5491 49.7299 51.1758 47.8347 51.1758 45.8279V45.7164C51.1758 43.7097 51.5491 41.8144 52.2958 40.0307C53.0424 38.2469 54.0691 36.6675 55.3758 35.2925C56.6824 33.9175 58.2131 32.8398 59.9678 32.0594C61.7598 31.2418 63.6824 30.8331 65.7358 30.8331C67.0798 30.8331 68.2931 30.9817 69.3758 31.279C70.4958 31.5391 71.5224 31.9108 72.4558 32.3939C73.3891 32.877 74.2291 33.4344 74.9758 34.0662C75.7598 34.6979 76.4878 35.3668 77.1598 36.0729L75.1998 38.0796C73.9678 36.8161 72.6051 35.7199 71.1118 34.7908C69.6184 33.8618 67.8078 33.3972 65.6798 33.3972C64.0371 33.3972 62.5064 33.7131 61.0878 34.3449C59.7064 34.9766 58.4931 35.8499 57.4478 36.9648C56.4398 38.0425 55.6371 39.3246 55.0398 40.8111C54.4424 42.2975 54.1438 43.8955 54.1438 45.6049V45.7164C54.1438 47.4259 54.4424 49.0424 55.0398 50.5661C55.6744 52.0525 56.5145 53.3532 57.5598 54.4681C58.6424 55.5829 59.8931 56.4562 61.3118 57.088C62.7304 57.7197 64.2611 58.0356 65.9038 58.0356C67.9198 58.0356 69.7118 57.5897 71.2798 56.6978C72.8851 55.7687 74.2851 54.6353 75.4798 53.2975ZM117.292 45.6049V45.7164C117.292 47.7232 116.918 49.6184 116.172 51.4022C115.462 53.186 114.436 54.7654 113.092 56.1404C111.785 57.5154 110.236 58.6116 108.444 59.4292C106.652 60.2096 104.692 60.5998 102.564 60.5998C100.436 60.5998 98.4757 60.2096 96.6837 59.4292C94.929 58.6116 93.3983 57.5339 92.0917 56.1961C90.785 54.8583 89.7583 53.2975 89.0117 51.5137C88.3023 49.7299 87.9477 47.8347 87.9477 45.8279V45.7164C87.9477 43.7097 88.3023 41.8144 89.0117 40.0307C89.7583 38.2469 90.785 36.6675 92.0917 35.2925C93.4357 33.9175 95.0037 32.8398 96.7957 32.0594C98.5877 31.2418 100.548 30.8331 102.676 30.8331C104.804 30.8331 106.745 31.2418 108.5 32.0594C110.292 32.8398 111.841 33.8989 113.148 35.2368C114.454 36.5746 115.462 38.1354 116.172 39.9192C116.918 41.7029 117.292 43.5982 117.292 45.6049ZM196.241 31.502H199.265L186.889 60.9343C185.619 63.9072 184.219 65.9883 182.689 67.1775C181.195 68.4038 179.422 69.017 177.369 69.017C176.286 69.017 175.315 68.9055 174.457 68.6825C173.598 68.4967 172.683 68.1994 171.713 67.7906L172.665 65.3937C173.411 65.7653 174.139 66.0255 174.849 66.1741C175.558 66.3599 176.454 66.4528 177.537 66.4528C178.283 66.4528 178.974 66.3413 179.609 66.1184C180.243 65.8954 180.841 65.5052 181.401 64.9478C181.961 64.4275 182.502 63.74 183.025 62.8853C183.547 62.0305 184.07 60.99 184.593 59.7637L170.873 31.502H174.065L185.937 56.9208L196.241 31.502ZM227.819 34.0662V31.056C226.4 31.0189 225.037 31.2047 223.731 31.6135C222.461 31.9851 221.285 32.5611 220.203 33.3415C219.12 34.0847 218.149 34.9952 217.291 36.0729C216.432 37.1506 215.723 38.3212 215.163 39.5847V31.502H212.419V59.9309H215.163V48.2806C215.163 45.9766 215.499 43.9512 216.171 42.2046C216.843 40.4208 217.739 38.9344 218.859 37.7452C220.016 36.5188 221.341 35.6084 222.835 35.0138C224.328 34.382 225.896 34.0662 227.539 34.0662H227.819ZM273.584 38.6928C274.368 40.5881 274.76 42.7621 274.76 45.2147C274.76 47.6674 274.368 49.8414 273.584 51.7367C272.837 53.6319 271.81 55.2485 270.504 56.5863C269.234 57.887 267.76 58.8718 266.08 59.5407C264.437 60.2096 262.738 60.5441 260.984 60.5441C258.557 60.5441 256.541 60.0238 254.936 58.9833C253.33 57.9427 252.005 56.735 250.96 55.36V68.8498H244.184V30.4986H250.96V35.404C252.042 33.8432 253.386 32.5425 254.992 31.502C256.597 30.4243 258.594 29.8854 260.984 29.8854C262.738 29.8854 264.437 30.2199 266.08 30.8888C267.722 31.5577 269.178 32.5611 270.448 33.8989C271.754 35.1996 272.8 36.7976 273.584 38.6928ZM294.075 43.3195C294.075 41.0154 294.691 39.2317 295.923 37.9682C297.155 36.6675 298.761 36.0172 300.739 36.0172C302.755 36.0172 304.305 36.6489 305.387 37.9124C306.507 39.1388 307.067 40.904 307.067 43.208V59.9309H313.843V41.2012C313.843 37.7452 312.929 34.9952 311.099 32.9513C309.27 30.9074 306.675 29.8854 303.315 29.8854C302.158 29.8854 301.113 30.0341 300.179 30.3314C299.283 30.5915 298.443 30.9631 297.659 31.4462C296.913 31.9293 296.241 32.4868 295.643 33.1185C295.083 33.7131 294.561 34.3634 294.075 35.0695V19.2385H287.299V59.9309H294.075V43.3195ZM356.354 39.2502C357.138 41.1083 357.53 43.0965 357.53 45.2147C357.53 47.333 357.119 49.3211 356.298 51.1792C355.514 53.0373 354.413 54.6725 352.994 56.0846C351.613 57.4596 349.951 58.5559 348.01 59.3735C346.069 60.191 343.959 60.5998 341.682 60.5998C339.442 60.5998 337.351 60.2096 335.41 59.4292C333.506 58.6116 331.845 57.5154 330.426 56.1404C329.045 54.7282 327.962 53.1117 327.178 51.2907C326.394 49.4326 326.002 47.4445 326.002 45.3262C326.002 43.208 326.394 41.2198 327.178 39.3617C327.999 37.4665 329.101 35.8313 330.482 34.4564C331.901 33.0442 333.562 31.9293 335.466 31.1118C337.407 30.2942 339.517 29.8854 341.794 29.8854C344.071 29.8854 346.162 30.2942 348.066 31.1118C350.007 31.8922 351.669 32.9885 353.05 34.4006C354.469 35.7756 355.57 37.3921 356.354 39.2502ZM378.207 36.2959H386.159V30.4986H378.207V22.4159H371.431V30.4986H367.679V36.2959H371.431V51.7924C371.431 53.4275 371.636 54.8025 372.047 55.9174C372.457 56.9951 373.036 57.8684 373.783 58.5373C374.567 59.2062 375.481 59.6893 376.527 59.9866C377.572 60.2839 378.711 60.4326 379.943 60.4326C381.212 60.4326 382.332 60.3025 383.303 60.0424C384.273 59.7822 385.188 59.4106 386.047 58.9275V53.409C384.703 54.0779 383.303 54.4123 381.847 54.4123C380.689 54.4123 379.793 54.1336 379.159 53.5762C378.524 52.9816 378.207 52.034 378.207 50.7333V36.2959ZM426.507 39.2502C427.291 41.1083 427.683 43.0965 427.683 45.2147C427.683 47.333 427.272 49.3211 426.451 51.1792C425.667 53.0373 424.566 54.6725 423.147 56.0846C421.766 57.4596 420.104 58.5559 418.163 59.3735C416.222 60.191 414.112 60.5998 411.835 60.5998C409.595 60.5998 407.504 60.2096 405.563 59.4292C403.659 58.6116 401.998 57.5154 400.579 56.1404C399.198 54.7282 398.115 53.1117 397.331 51.2907C396.547 49.4326 396.155 47.4445 396.155 45.3262C396.155 43.208 396.547 41.2198 397.331 39.3617C398.152 37.4665 399.254 35.8313 400.635 34.4564C402.054 33.0442 403.715 31.9293 405.619 31.1118C407.56 30.2942 409.67 29.8854 411.947 29.8854C414.224 29.8854 416.315 30.2942 418.219 31.1118C420.16 31.8922 421.822 32.9885 423.203 34.4006C424.622 35.7756 425.723 37.3921 426.507 39.2502Z" fill="#101010"/>
</svg>
