<svg width="378" height="51" viewBox="0 0 378 51" fill="none" xmlns="http://www.w3.org/2000/svg">
<path d="M26.71 36.2598L24.806 34.5875C23.6113 35.9253 22.2113 37.0588 20.606 37.9878C19.038 38.8797 17.246 39.3257 15.23 39.3257C13.5873 39.3257 12.0566 39.0098 10.638 38.378C9.21929 37.7463 7.96862 36.873 6.88595 35.7581C5.84062 34.6433 5.00062 33.3426 4.36595 31.8561C3.76862 30.3325 3.46995 28.7159 3.46995 27.0065V26.895C3.46995 25.1855 3.76862 23.5876 4.36595 22.1011C4.96329 20.6146 5.76595 19.3325 6.77395 18.2548C7.81929 17.14 9.03262 16.2667 10.414 15.6349C11.8326 15.0032 13.3633 14.6873 15.006 14.6873C17.134 14.6873 18.9446 15.1518 20.438 16.0808C21.9313 17.0099 23.294 18.1062 24.526 19.3697L26.486 17.3629C25.814 16.6569 25.086 15.9879 24.302 15.3562C23.5553 14.7244 22.7153 14.167 21.782 13.6839C20.8486 13.2008 19.822 12.8292 18.702 12.569C17.6193 12.2717 16.406 12.1231 15.062 12.1231C13.0086 12.1231 11.086 12.5319 9.29395 13.3494C7.53929 14.1298 6.00862 15.2075 4.70195 16.5825C3.39529 17.9575 2.36862 19.5369 1.62195 21.3207C0.875286 23.1045 0.501953 24.9997 0.501953 27.0065V27.118C0.501953 29.1247 0.875286 31.02 1.62195 32.8037C2.36862 34.5875 3.39529 36.1483 4.70195 37.4861C6.00862 38.824 7.53929 39.9017 9.29395 40.7192C11.086 41.4996 13.0086 41.8898 15.062 41.8898C17.6753 41.8898 19.8966 41.3696 21.726 40.329C23.5926 39.2513 25.254 37.8949 26.71 36.2598Z" fill="white"/>
<path d="M66.6178 27.0065V26.895C66.6178 24.8882 66.2445 22.993 65.4978 21.2092C64.7885 19.4254 63.7805 17.8646 62.4738 16.5268C61.1672 15.189 59.6178 14.1298 57.8258 13.3494C56.0712 12.5319 54.1298 12.1231 52.0018 12.1231C49.8738 12.1231 47.9138 12.5319 46.1218 13.3494C44.3298 14.1298 42.7618 15.2075 41.4178 16.5825C40.1112 17.9575 39.0845 19.5369 38.3378 21.3207C37.6285 23.1045 37.2738 24.9997 37.2738 27.0065V27.118C37.2738 29.1247 37.6285 31.02 38.3378 32.8037C39.0845 34.5875 40.1112 36.1483 41.4178 37.4861C42.7245 38.824 44.2552 39.9017 46.0098 40.7192C47.8018 41.4996 49.7618 41.8898 51.8898 41.8898C54.0178 41.8898 55.9778 41.4996 57.7698 40.7192C59.5618 39.9017 61.1112 38.8054 62.4178 37.4304C63.7618 36.0554 64.7885 34.476 65.4978 32.6923C66.2445 30.9085 66.6178 29.0132 66.6178 27.0065ZM63.6498 27.118C63.6498 28.7902 63.3512 30.3696 62.7538 31.8561C62.1938 33.3426 61.3912 34.6433 60.3458 35.7581C59.3378 36.8358 58.1058 37.7091 56.6498 38.378C55.2312 39.0098 53.6818 39.3257 52.0018 39.3257C50.3592 39.3257 48.8098 39.0098 47.3538 38.378C45.9352 37.7463 44.6845 36.873 43.6018 35.7581C42.5565 34.6433 41.7352 33.3426 41.1378 31.8561C40.5405 30.3325 40.2418 28.7159 40.2418 27.0065V26.895C40.2418 25.2227 40.5218 23.6433 41.0818 22.1568C41.6792 20.6704 42.4818 19.3883 43.4898 18.3106C44.5352 17.1957 45.7672 16.3224 47.1858 15.6906C48.6418 15.0217 50.2098 14.6873 51.8898 14.6873C53.5325 14.6873 55.0632 15.0032 56.4818 15.6349C57.9378 16.2667 59.1885 17.14 60.2338 18.2548C61.3165 19.3697 62.1565 20.6889 62.7538 22.2126C63.3512 23.6991 63.6498 25.297 63.6498 27.0065V27.118Z" fill="white"/>
<path d="M107.198 41.2209V0.528564H104.454V18.9237C103.857 18.0319 103.166 17.1771 102.382 16.3596C101.635 15.542 100.777 14.8173 99.8061 14.1856C98.8728 13.5538 97.8088 13.0521 96.6141 12.6805C95.4195 12.3089 94.1128 12.1231 92.6941 12.1231C90.9768 12.1231 89.2781 12.4761 87.5981 13.1822C85.9555 13.8511 84.4808 14.8359 83.1741 16.1366C81.8675 17.4001 80.8035 18.9609 79.9821 20.819C79.1981 22.6399 78.8061 24.7024 78.8061 27.0065V27.118C78.8061 29.422 79.1981 31.5031 79.9821 33.3612C80.8035 35.1821 81.8675 36.7243 83.1741 37.9878C84.4808 39.2513 85.9555 40.2176 87.5981 40.8865C89.2781 41.5554 90.9768 41.8898 92.6941 41.8898C94.1128 41.8898 95.4008 41.6854 96.5581 41.2767C97.7528 40.905 98.8168 40.4034 99.7501 39.7716C100.721 39.1399 101.579 38.3966 102.326 37.5419C103.11 36.6872 103.819 35.7953 104.454 34.8662V41.2209H107.198ZM104.622 27.0622C104.622 28.8831 104.286 30.5369 103.614 32.0233C102.979 33.5098 102.121 34.7919 101.038 35.8696C99.9555 36.9473 98.7048 37.7834 97.2861 38.378C95.9048 38.9726 94.4675 39.2699 92.9741 39.2699C91.4808 39.2699 90.0435 38.9912 88.6621 38.4338C87.3181 37.8392 86.1235 37.0216 85.0781 35.9811C84.0701 34.9034 83.2675 33.6027 82.6701 32.0791C82.0728 30.5554 81.7741 28.8646 81.7741 27.0065V26.895C81.7741 24.9997 82.0541 23.3089 82.6141 21.8224C83.2115 20.2987 84.0141 19.0166 85.0221 17.9761C86.0301 16.9356 87.2061 16.1366 88.5501 15.5792C89.9315 15.0217 91.4061 14.743 92.9741 14.743C94.4675 14.743 95.9048 15.0403 97.2861 15.6349C98.7048 16.2295 99.9555 17.0656 101.038 18.1433C102.121 19.1839 102.979 20.466 103.614 21.9896C104.286 23.4761 104.622 25.1298 104.622 26.9507V27.0622Z" fill="white"/>
<path d="M148.591 12.792H145.567L135.263 38.2108L123.391 12.792H120.199L133.919 41.0537C133.396 42.28 132.874 43.3206 132.351 44.1753C131.828 45.03 131.287 45.7175 130.727 46.2378C130.167 46.7952 129.57 47.1854 128.935 47.4084C128.3 47.6314 127.61 47.7429 126.863 47.7429C125.78 47.7429 124.884 47.6499 124.175 47.4641C123.466 47.3155 122.738 47.0554 121.991 46.6837L121.039 49.0807C122.01 49.4895 122.924 49.7868 123.783 49.9726C124.642 50.1955 125.612 50.307 126.695 50.307C128.748 50.307 130.522 49.6939 132.015 48.4675C133.546 47.2783 134.946 45.1973 136.215 42.2243L148.591 12.792Z" fill="white"/>
<path d="M177.145 15.3562V12.3461C175.726 12.3089 174.363 12.4947 173.057 12.9035C171.787 13.2751 170.611 13.8511 169.529 14.6315C168.446 15.3748 167.475 16.2852 166.617 17.3629C165.758 18.4406 165.049 19.6112 164.489 20.8747V12.792H161.745V41.2209H164.489V29.5706C164.489 27.2666 164.825 25.2413 165.497 23.4947C166.169 21.7109 167.065 20.2244 168.185 19.0352C169.342 17.8089 170.667 16.8984 172.161 16.3038C173.654 15.6721 175.222 15.3562 176.865 15.3562H177.145Z" fill="white"/>
<path d="M224.086 26.5048C224.086 24.0521 223.694 21.8781 222.91 19.9829C222.126 18.0876 221.081 16.4896 219.774 15.189C218.505 13.8511 217.049 12.8478 215.406 12.1788C213.763 11.5099 212.065 11.1755 210.31 11.1755C207.921 11.1755 205.923 11.7143 204.318 12.792C202.713 13.8325 201.369 15.1332 200.286 16.694V11.7886H193.51V50.1398H200.286V36.65C201.331 38.025 202.657 39.2328 204.262 40.2733C205.867 41.3138 207.883 41.8341 210.31 41.8341C212.065 41.8341 213.763 41.4996 215.406 40.8307C217.086 40.1618 218.561 39.177 219.83 37.8763C221.137 36.5385 222.163 34.922 222.91 33.0267C223.694 31.1315 224.086 28.9575 224.086 26.5048ZM217.198 26.5048C217.198 27.9541 216.974 29.2734 216.526 30.4625C216.078 31.6146 215.462 32.5993 214.678 33.4169C213.931 34.2345 213.035 34.8662 211.99 35.3122C210.982 35.7581 209.899 35.9811 208.742 35.9811C207.585 35.9811 206.483 35.7581 205.438 35.3122C204.393 34.8662 203.478 34.2345 202.694 33.4169C201.91 32.5622 201.275 31.5588 200.79 30.4068C200.342 29.2548 200.118 27.9541 200.118 26.5048C200.118 25.0555 200.342 23.7548 200.79 22.6028C201.275 21.4508 201.91 20.466 202.694 19.6484C203.478 18.7937 204.393 18.1433 205.438 17.6974C206.483 17.2515 207.585 17.0285 208.742 17.0285C209.899 17.0285 210.982 17.2515 211.99 17.6974C213.035 18.1433 213.931 18.7751 214.678 19.5927C215.462 20.4102 216.078 21.4136 216.526 22.6028C216.974 23.7548 217.198 25.0555 217.198 26.5048Z" fill="white"/>
<path d="M243.402 24.6095C243.402 22.3055 244.018 20.5217 245.25 19.2582C246.482 17.9575 248.087 17.3072 250.066 17.3072C252.082 17.3072 253.631 17.9389 254.714 19.2025C255.834 20.4288 256.394 22.194 256.394 24.498V41.2209H263.17V22.4913C263.17 19.0352 262.255 16.2852 260.426 14.2413C258.596 12.1974 256.002 11.1755 252.642 11.1755C251.484 11.1755 250.439 11.3241 249.506 11.6214C248.61 11.8815 247.77 12.2532 246.986 12.7363C246.239 13.2194 245.567 13.7768 244.97 14.4086C244.41 15.0032 243.887 15.6535 243.402 16.3596V0.528564H236.626V41.2209H243.402V24.6095Z" fill="white"/>
<path d="M306.856 26.5048C306.856 24.3866 306.464 22.3984 305.68 20.5403C304.896 18.6822 303.795 17.0656 302.376 15.6906C300.995 14.2785 299.333 13.1822 297.392 12.4018C295.488 11.5843 293.397 11.1755 291.12 11.1755C288.843 11.1755 286.733 11.5843 284.792 12.4018C282.888 13.2194 281.227 14.3342 279.808 15.7464C278.427 17.1214 277.325 18.7565 276.504 20.6518C275.72 22.5099 275.328 24.498 275.328 26.6163C275.328 28.7345 275.72 30.7227 276.504 32.5808C277.288 34.4017 278.371 36.0183 279.752 37.4304C281.171 38.8054 282.832 39.9017 284.736 40.7192C286.677 41.4996 288.768 41.8898 291.008 41.8898C293.285 41.8898 295.395 41.4811 297.336 40.6635C299.277 39.8459 300.939 38.7497 302.32 37.3747C303.739 35.9625 304.84 34.3274 305.624 32.4693C306.445 30.6112 306.856 28.623 306.856 26.5048ZM300.08 26.6163C300.08 27.9169 299.875 29.1433 299.464 30.2953C299.053 31.4102 298.456 32.395 297.672 33.2497C296.888 34.1044 295.936 34.7919 294.816 35.3122C293.733 35.7953 292.501 36.0368 291.12 36.0368C289.813 36.0368 288.6 35.7953 287.48 35.3122C286.397 34.7919 285.445 34.1044 284.624 33.2497C283.84 32.395 283.224 31.3916 282.776 30.2396C282.328 29.0504 282.104 27.8055 282.104 26.5048C282.104 25.2041 282.309 23.9963 282.72 22.8815C283.131 21.7295 283.728 20.7261 284.512 19.8714C285.296 19.0166 286.229 18.3477 287.312 17.8646C288.432 17.3444 289.664 17.0842 291.008 17.0842C292.352 17.0842 293.565 17.3444 294.648 17.8646C295.768 18.3477 296.72 19.0352 297.504 19.9271C298.325 20.7818 298.96 21.7852 299.408 22.9372C299.856 24.0893 300.08 25.3156 300.08 26.6163Z" fill="white"/>
<path d="M327.533 17.5859H335.485V11.7886H327.533V3.70591H320.757V11.7886H317.005V17.5859H320.757V33.0825C320.757 34.7176 320.962 36.0926 321.373 37.2074C321.783 38.2851 322.362 39.1584 323.109 39.8273C323.893 40.4963 324.808 40.9794 325.853 41.2767C326.898 41.574 328.037 41.7226 329.269 41.7226C330.538 41.7226 331.658 41.5925 332.629 41.3324C333.6 41.0723 334.514 40.7007 335.373 40.2176V34.699C334.029 35.3679 332.629 35.7024 331.173 35.7024C330.015 35.7024 329.119 35.4237 328.485 34.8662C327.85 34.2716 327.533 33.324 327.533 32.0233V17.5859Z" fill="white"/>
<path d="M377.009 26.5048C377.009 24.3866 376.617 22.3984 375.833 20.5403C375.049 18.6822 373.948 17.0656 372.529 15.6906C371.148 14.2785 369.487 13.1822 367.545 12.4018C365.641 11.5843 363.551 11.1755 361.273 11.1755C358.996 11.1755 356.887 11.5843 354.945 12.4018C353.041 13.2194 351.38 14.3342 349.961 15.7464C348.58 17.1214 347.479 18.7565 346.657 20.6518C345.873 22.5099 345.481 24.498 345.481 26.6163C345.481 28.7345 345.873 30.7227 346.657 32.5808C347.441 34.4017 348.524 36.0183 349.905 37.4304C351.324 38.8054 352.985 39.9017 354.889 40.7192C356.831 41.4996 358.921 41.8898 361.161 41.8898C363.439 41.8898 365.548 41.4811 367.489 40.6635C369.431 39.8459 371.092 38.7497 372.473 37.3747C373.892 35.9625 374.993 34.3274 375.777 32.4693C376.599 30.6112 377.009 28.623 377.009 26.5048ZM370.233 26.6163C370.233 27.9169 370.028 29.1433 369.617 30.2953C369.207 31.4102 368.609 32.395 367.825 33.2497C367.041 34.1044 366.089 34.7919 364.969 35.3122C363.887 35.7953 362.655 36.0368 361.273 36.0368C359.967 36.0368 358.753 35.7953 357.633 35.3122C356.551 34.7919 355.599 34.1044 354.777 33.2497C353.993 32.395 353.377 31.3916 352.929 30.2396C352.481 29.0504 352.257 27.8055 352.257 26.5048C352.257 25.2041 352.463 23.9963 352.873 22.8815C353.284 21.7295 353.881 20.7261 354.665 19.8714C355.449 19.0166 356.383 18.3477 357.465 17.8646C358.585 17.3444 359.817 17.0842 361.161 17.0842C362.505 17.0842 363.719 17.3444 364.801 17.8646C365.921 18.3477 366.873 19.0352 367.657 19.9271C368.479 20.7818 369.113 21.7852 369.561 22.9372C370.009 24.0893 370.233 25.3156 370.233 26.6163Z" fill="white"/>
</svg>
