<svg xmlns="http://www.w3.org/2000/svg" viewBox="0 0 725.03 111.19">
    <defs>
        <style>.cls-1{fill:#080808;fill-rule:evenodd;}</style>
    </defs>
    <g id="Layer_2" data-name="Layer 2">
        <g id="Layer_1-2" data-name="Layer 1">
            <path class="cls-1" d="M725,0H0V111.19H725ZM210.83,82V11.6a2.33,2.33,0,0,0-2.34-2.33h-.39a2.33,2.33,0,0,0-2.34,2.33V40.67a.82.82,0,0,1-1.48.5c-.72-.91-1.5-1.81-2.34-2.69a25.09,25.09,0,0,0-4.76-4,22.4,22.4,0,0,0-5.89-2.78,24.44,24.44,0,0,0-7.23-1,24.15,24.15,0,0,0-9.41,1.95,24.61,24.61,0,0,0-8.16,5.45,27.15,27.15,0,0,0-5.9,8.65,28.71,28.71,0,0,0-2.17,11.42v.2a29.49,29.49,0,0,0,2.17,11.52,27.2,27.2,0,0,0,5.9,8.54,25.27,25.27,0,0,0,17.57,7.21,21.2,21.2,0,0,0,7.13-1.14,22.22,22.22,0,0,0,5.89-2.77,22.64,22.64,0,0,0,4.75-4.12c1-1.06,1.89-2.16,2.74-3.28a.66.66,0,0,1,1.19.4V82a2.34,2.34,0,0,0,2.34,2.34h.39A2.34,2.34,0,0,0,210.83,82Zm-4.76-23.79a23.07,23.07,0,0,1-6.61,16.25,21.39,21.39,0,0,1-6.93,4.63,19.88,19.88,0,0,1-8,1.65,21.08,21.08,0,0,1-8-1.54A21.86,21.86,0,0,1,170,74.7a22.33,22.33,0,0,1-4.44-7.2,25.27,25.27,0,0,1-1.66-9.36v-.21a26.47,26.47,0,0,1,1.55-9.36,21.15,21.15,0,0,1,4.45-7.1A19.26,19.26,0,0,1,176.41,37a21.77,21.77,0,0,1,8.16-1.54,19.88,19.88,0,0,1,8,1.65,21.39,21.39,0,0,1,6.93,4.63,20.65,20.65,0,0,1,4.75,7.1A21.94,21.94,0,0,1,206.07,58ZM59.73,73l1.36,1.19a1.52,1.52,0,0,1,.11,2.19,36.69,36.69,0,0,1-8.13,6.35,24.41,24.41,0,0,1-12.3,2.89,26.32,26.32,0,0,1-10.64-2.16,28.62,28.62,0,0,1-8.48-6A27.25,27.25,0,0,1,16,68.84a26.9,26.9,0,0,1-2.07-10.5v-.2A26.87,26.87,0,0,1,16,47.64a28.4,28.4,0,0,1,5.68-8.74,26.29,26.29,0,0,1,8.48-6,25.27,25.27,0,0,1,10.64-2.26,25.35,25.35,0,0,1,6.72.82,23.75,23.75,0,0,1,5.68,2.06,24.94,24.94,0,0,1,4.66,3.08c1.09.89,2.13,1.81,3.1,2.77a1.34,1.34,0,0,1,0,1.88l-1.76,1.8a1.34,1.34,0,0,1-1.9,0A39.44,39.44,0,0,0,50.69,38a18.61,18.61,0,0,0-10-2.57,20.57,20.57,0,0,0-8.48,1.75A21.1,21.1,0,0,0,25.47,42,22.62,22.62,0,0,0,21,49.08a23.57,23.57,0,0,0-1.65,8.85v.21a24.4,24.4,0,0,0,1.65,9,24.49,24.49,0,0,0,4.65,7.2,22,22,0,0,0,6.93,4.83,20.49,20.49,0,0,0,8.47,1.75A19.66,19.66,0,0,0,51,78.4a31.38,31.38,0,0,0,6.87-5.32A1.35,1.35,0,0,1,59.73,73Zm76.2-15.06v.21a26.85,26.85,0,0,1-2.07,10.49,26.22,26.22,0,0,1-5.68,8.74,27.57,27.57,0,0,1-8.58,6.08,28.36,28.36,0,0,1-21.71,0,28.58,28.58,0,0,1-8.47-6,27.28,27.28,0,0,1-5.69-8.64,28.15,28.15,0,0,1-2-10.5v-.2a28.12,28.12,0,0,1,2-10.5,28.43,28.43,0,0,1,5.69-8.74,27.13,27.13,0,0,1,8.68-6A25.81,25.81,0,0,1,109,30.67a25.12,25.12,0,0,1,10.75,2.26,26.75,26.75,0,0,1,8.58,5.86,26,26,0,0,1,5.58,8.65A26.85,26.85,0,0,1,135.93,57.93Zm-7.13,9.16a23.31,23.31,0,0,0,1.65-8.75v-.2a23.53,23.53,0,0,0-1.65-8.85A21.93,21.93,0,0,0,124.14,42a21.21,21.21,0,0,0-15.4-6.58,20.62,20.62,0,0,0-8.68,1.85,20.93,20.93,0,0,0-6.82,4.84,22.46,22.46,0,0,0-4.44,7.09,24.5,24.5,0,0,0-1.55,8.75v.21a24.4,24.4,0,0,0,1.65,9,22.9,22.9,0,0,0,4.55,7.2,21.93,21.93,0,0,0,6.92,4.83A21.27,21.27,0,0,0,109,80.87a20.8,20.8,0,0,0,8.58-1.75,21.36,21.36,0,0,0,6.82-4.83A21.63,21.63,0,0,0,128.8,67.09ZM283.22,31.9h.49a2.33,2.33,0,0,1,2.15,3.24L264.38,86.22q-3.51,8.23-7.75,11.53a15,15,0,0,1-9.82,3.39,21,21,0,0,1-5.37-.62,25.9,25.9,0,0,1-3.74-1.11,1.41,1.41,0,0,1-.81-1.83l.34-.85a2.34,2.34,0,0,1,2.94-1.4,14.19,14.19,0,0,0,2,.56,19.63,19.63,0,0,0,5,.52,11.56,11.56,0,0,0,3.83-.62,8.8,8.8,0,0,0,3.3-2.16,17.87,17.87,0,0,0,3-3.81,40.3,40.3,0,0,0,2.18-4.15,3.65,3.65,0,0,0,0-3.13c-3.45-7.12-18-37.15-22.95-47.28a2.34,2.34,0,0,1,2.1-3.36h.68a2.34,2.34,0,0,1,2.11,1.35l20,42.81a1.32,1.32,0,0,0,2.43-.07l17.28-42.63A2.35,2.35,0,0,1,283.22,31.9Zm56.71,1.59a2.31,2.31,0,0,0-2.48-2.35,22.18,22.18,0,0,0-5.07,1,21,21,0,0,0-6.51,3.19,24.58,24.58,0,0,0-5.37,5,28.54,28.54,0,0,0-3.13,4.81.42.42,0,0,1-.8-.2V33a1.13,1.13,0,0,0-1.13-1.13h-2.81A1.13,1.13,0,0,0,311.5,33V83.25a1.13,1.13,0,0,0,1.13,1.12h2.81a1.13,1.13,0,0,0,1.13-1.12V62.87a31.19,31.19,0,0,1,1.86-11.22,24.37,24.37,0,0,1,5-8.23,20.37,20.37,0,0,1,7.34-5,24,24,0,0,1,7.82-1.7,1.47,1.47,0,0,0,1.38-1.47Zm84.46,11.68a31.23,31.23,0,0,1,2.17,12,31.23,31.23,0,0,1-2.17,12,26.45,26.45,0,0,1-5.68,9,23.22,23.22,0,0,1-8.17,5.45,24.57,24.57,0,0,1-9.4,1.85A20.12,20.12,0,0,1,390,82.62a30.39,30.39,0,0,1-4.7-3.71A1.54,1.54,0,0,0,382.64,80V98.5a2.33,2.33,0,0,1-2.34,2.33h-7.83a2.33,2.33,0,0,1-2.34-2.33V32.39a2.34,2.34,0,0,1,2.34-2.34h7.83a2.34,2.34,0,0,1,2.34,2.34v4a.93.93,0,0,0,1.62.62,26.55,26.55,0,0,1,5.82-5.09,19.4,19.4,0,0,1,11.06-3,24.57,24.57,0,0,1,9.4,1.85,22.9,22.9,0,0,1,8.07,5.55A26.59,26.59,0,0,1,424.39,45.17ZM412.61,64.51a20.48,20.48,0,0,0,1.24-7.3,19.63,19.63,0,0,0-1.24-7.2,16.1,16.1,0,0,0-3.41-5.56,14.24,14.24,0,0,0-5-3.5,14.71,14.71,0,0,0-6-1.23A15.41,15.41,0,0,0,392.15,41a14.79,14.79,0,0,0-5.07,3.6A17.56,17.56,0,0,0,383.57,50a19.63,19.63,0,0,0-1.24,7.2,19.66,19.66,0,0,0,1.24,7.2A18.92,18.92,0,0,0,387.08,70a15.38,15.38,0,0,0,11.16,4.73,14.71,14.71,0,0,0,6-1.23,14.24,14.24,0,0,0,5-3.5A16.32,16.32,0,0,0,412.61,64.51Zm49.61-10.8q0-6.37,3.41-9.88a11.67,11.67,0,0,1,8.89-3.6q5.58,0,8.57,3.5c2.07,2.27,3.11,5.52,3.11,9.78V82a2.33,2.33,0,0,0,2.33,2.34h7.83A2.34,2.34,0,0,0,498.7,82V49.8q0-9.57-5.06-15.22t-14.37-5.66a19.85,19.85,0,0,0-10.44,2.88,20.19,20.19,0,0,0-3.72,3.08c-.54.58-1.31,1.55-1.92,2.33a.54.54,0,0,1-1-.33V11.6a2.33,2.33,0,0,0-2.34-2.33h-7.83a2.33,2.33,0,0,0-2.34,2.33V82a2.34,2.34,0,0,0,2.34,2.34h7.83A2.34,2.34,0,0,0,462.22,82ZM577.16,46.2a28,28,0,0,1,2.17,11,26.86,26.86,0,0,1-2.27,11,28,28,0,0,1-6.1,9,28.53,28.53,0,0,1-9.2,6.07,29.74,29.74,0,0,1-11.68,2.27,30.73,30.73,0,0,1-11.57-2.16,30.15,30.15,0,0,1-9.2-6.08,29.2,29.2,0,0,1-6-9,29,29,0,0,1,0-22,28.85,28.85,0,0,1,6.1-9.06,29.46,29.46,0,0,1,9.2-6.17,29.77,29.77,0,0,1,11.68-2.26,29,29,0,0,1,11.57,2.26,26.46,26.46,0,0,1,9.21,6.07A27,27,0,0,1,577.16,46.2Zm-11.47,18a20,20,0,0,0,1.14-6.79,18.65,18.65,0,0,0-1.24-6.79,16.62,16.62,0,0,0-3.52-5.56,14.49,14.49,0,0,0-5.27-3.81,15.33,15.33,0,0,0-6.72-1.44,16,16,0,0,0-6.82,1.44A15.48,15.48,0,0,0,538.09,45a16.06,16.06,0,0,0-3.3,5.55,20,20,0,0,0,.1,13.58,17.53,17.53,0,0,0,3.41,5.56,18.32,18.32,0,0,0,5.27,3.81,16.83,16.83,0,0,0,6.72,1.33,15.64,15.64,0,0,0,12.09-5.14A16.41,16.41,0,0,0,565.69,64.21Zm53.65-23.46h10.49a2.34,2.34,0,0,0,2.34-2.34v-6a2.33,2.33,0,0,0-2.34-2.34H619.34a1.84,1.84,0,0,1-1.84-1.85V17.47a2.34,2.34,0,0,0-2.34-2.34h-7.83A2.34,2.34,0,0,0,605,17.47V28.2a1.85,1.85,0,0,1-1.85,1.85H600.4a2.33,2.33,0,0,0-2.33,2.34v6a2.33,2.33,0,0,0,2.33,2.34h2.74A1.84,1.84,0,0,1,605,42.59V69.35A22.06,22.06,0,0,0,606.13,77a12.11,12.11,0,0,0,3.2,4.84,13.27,13.27,0,0,0,5.07,2.67,22.91,22.91,0,0,0,6.3.83,24.06,24.06,0,0,0,6.2-.72,21.18,21.18,0,0,0,3.72-1.37A2.34,2.34,0,0,0,632,81.09V76.21c0-2.1-1.52-3.13-3-2.69a17.09,17.09,0,0,1-4.72.67,7.31,7.31,0,0,1-5-1.55c-1.17-1.1-1.75-2.84-1.75-5.24V42.59A1.84,1.84,0,0,1,619.34,40.75Zm87.3,5.45a28,28,0,0,1,2.17,11,26.86,26.86,0,0,1-2.27,11,28,28,0,0,1-6.1,9,28.53,28.53,0,0,1-9.2,6.07,29.74,29.74,0,0,1-11.68,2.27A30.73,30.73,0,0,1,668,83.45a30.15,30.15,0,0,1-9.2-6.08,29.2,29.2,0,0,1-6-9,29,29,0,0,1,0-22,28.85,28.85,0,0,1,6.1-9.06,29.46,29.46,0,0,1,9.2-6.17,29.77,29.77,0,0,1,11.68-2.26,29.07,29.07,0,0,1,11.58,2.26,26.38,26.38,0,0,1,9.19,6.07A26.76,26.76,0,0,1,706.64,46.2Zm-11.47,18a20,20,0,0,0,1.14-6.79,18.65,18.65,0,0,0-1.24-6.79,16.62,16.62,0,0,0-3.52-5.56,14.49,14.49,0,0,0-5.27-3.81,15.33,15.33,0,0,0-6.72-1.44,16,16,0,0,0-6.82,1.44A15.48,15.48,0,0,0,667.57,45a16.21,16.21,0,0,0-3.3,5.55,20,20,0,0,0,.1,13.58,17.53,17.53,0,0,0,3.41,5.56,18.32,18.32,0,0,0,5.27,3.81,16.83,16.83,0,0,0,6.72,1.33,15.64,15.64,0,0,0,12.09-5.14A16.41,16.41,0,0,0,695.17,64.21Z"/>
        </g>
    </g>
</svg>